<?xml version="1.0" encoding="UTF-8" standalone="no"?>
<!DOCTYPE svg PUBLIC "-//W3C//DTD SVG 1.1//EN" "http://www.w3.org/Graphics/SVG/1.1/DTD/svg11.dtd">
<svg xmlns="http://www.w3.org/2000/svg" version="1.1" viewBox="0 0 450 90" width="450" height="90">
<g stroke-width="2.00" fill="none" stroke-linecap="butt">
<path stroke="#f5a49d" vector-effect="non-scaling-stroke" d="
  M 40.17 34.99
  L 42.01 22.25
  A 0.74 0.62 4.4 0 1 42.75 21.72
  L 68.50 22.48
  A 0.68 0.63 6.2 0 0 69.17 21.98
  L 72.57 5.78
  Q 72.99 3.74 71.01 3.74
  L 21.50 3.75
  A 0.68 0.65 2.8 0 0 20.83 4.33
  C 18.67 24.85 17.32 45.90 13.83 66.21
  A 0.46 0.43 -84.9 0 0 14.25 66.75
  L 35.50 66.75
  A 0.71 0.55 1.7 0 0 36.20 66.24
  L 37.23 54.50
  A 1.12 0.99 -86.7 0 1 38.25 53.47
  L 58.75 53.96
  A 0.62 0.48 5.0 0 0 59.35 53.57
  L 62.78 37.01
  A 1.51 1.18 -83.2 0 0 61.69 35.20
  L 40.75 35.50
  A 0.56 0.45 2.5 0 1 40.17 34.99"
/>
<path stroke="#f5a49d" vector-effect="non-scaling-stroke" d="
  M 126.69 52.06
  L 133.10 66.17
  A 1.00 0.99 77.3 0 0 134.00 66.75
  L 163.25 66.75
  A 0.60 0.35 -83.5 0 0 163.64 66.23
  L 170.51 20.25
  A 0.95 0.90 2.1 0 0 169.50 19.23
  L 151.06 20.31
  A 0.58 0.47 -88.1 0 0 150.62 20.82
  L 148.19 47.24
  A 0.90 0.65 88.8 0 1 147.66 48.00
  Q 146.90 48.19 146.56 47.42
  Q 140.36 33.80 134.07 20.07
  A 0.98 0.86 76.3 0 0 133.25 19.50
  L 111.00 19.50
  A 0.62 0.51 -86.3 0 0 110.48 20.05
  C 109.02 35.44 107.30 50.78 105.71 66.16
  A 0.54 0.54 2.9 0 0 106.25 66.75
  L 123.25 66.75
  A 0.67 0.40 -85.9 0 0 123.68 66.14
  C 123.98 62.84 125.05 51.50 125.95 51.46
  A 0.98 0.65 72.4 0 1 126.69 52.06"
/>
<path stroke="#f5a49d" vector-effect="non-scaling-stroke" d="
  M 233.12 66.25
  C 243.82 47.71 241.82 19.33 213.73 19.27
  Q 198.62 19.25 183.49 19.59
  A 0.55 0.45 1.6 0 0 182.96 20.00
  L 178.28 66.20
  A 0.50 0.48 -86.8 0 0 178.75 66.75
  L 232.25 66.75
  A 1.01 0.98 14.2 0 0 233.12 66.25"
/>
<path stroke="#f5a49d" vector-effect="non-scaling-stroke" d="
  M 330.62 52.17
  Q 330.89 49.77 331.95 52.07
  L 338.46 66.27
  A 0.79 0.58 74.5 0 0 339.06 66.74
  L 368.50 66.75
  A 0.51 0.42 -86.3 0 0 368.93 66.30
  Q 371.90 42.99 375.85 19.82
  A 0.53 0.38 -84.4 0 0 375.49 19.19
  L 356.50 20.32
  A 0.69 0.46 -86.1 0 0 356.04 20.92
  Q 354.59 33.90 353.52 46.93
  C 353.42 48.17 352.37 48.70 351.79 47.43
  Q 345.59 33.81 339.32 20.07
  A 0.98 0.86 76.3 0 0 338.50 19.50
  L 316.25 19.50
  A 0.56 0.54 -87.1 0 0 315.71 20.00
  L 311.10 66.26
  A 0.45 0.41 -86.8 0 0 311.50 66.75
  L 328.50 66.75
  A 0.57 0.50 -86.1 0 0 329.00 66.25
  L 330.62 52.17"
/>
<path stroke="#f5a49d" vector-effect="non-scaling-stroke" d="
  M 74.59 19.68
  L 69.86 65.96
  A 0.72 0.44 -85.3 0 0 70.26 66.75
  L 89.25 66.75
  A 0.62 0.51 -84.9 0 0 89.77 66.22
  L 96.77 20.25
  A 0.66 0.55 -85.1 0 0 96.25 19.50
  L 74.81 19.51
  A 0.22 0.19 2.8 0 0 74.59 19.68"
/>
<path stroke="#f5a49d" vector-effect="non-scaling-stroke" d="
  M 264.43 19.93
  Q 254.29 43.20 244.09 66.43
  A 0.24 0.23 11.4 0 0 244.31 66.75
  L 297.50 66.75
  A 0.65 0.55 84.7 0 0 298.02 66.00
  L 290.58 19.94
  A 0.51 0.30 83.2 0 0 290.25 19.50
  L 264.75 19.50
  A 0.30 0.23 -80.6 0 0 264.51 19.72
  Q 264.47 19.85 264.43 19.93"
/>
<path stroke="#f5a49d" vector-effect="non-scaling-stroke" d="
  M 410.31 40.98
  A 0.44 0.43 -17.1 0 1 409.77 40.70
  Q 406.55 30.50 404.40 20.02
  A 0.67 0.64 -5.2 0 0 403.75 19.50
  L 382.25 19.50
  A 0.42 0.40 79.4 0 0 381.88 20.07
  Q 389.23 40.39 396.51 60.74
  C 397.22 62.70 396.75 64.20 396.48 66.18
  A 0.52 0.50 3.8 0 0 397.00 66.75
  L 415.75 66.75
  A 0.60 0.53 -86.4 0 0 416.28 66.22
  C 416.56 64.08 416.68 62.62 417.93 60.73
  Q 431.32 40.48 444.76 20.15
  Q 445.19 19.50 444.50 19.50
  L 423.75 19.50
  A 1.08 0.86 -72.3 0 0 422.92 20.06
  C 421.45 22.80 412.06 40.46 410.31 40.98"
/>
<path stroke="#f5a49d" vector-effect="non-scaling-stroke" d="
  M 12.60 72.97
  C 12.07 74.24 11.75 77.77 11.55 79.40
  A 0.54 0.46 -86.2 0 0 12.00 80.00
  L 34.25 80.00
  A 0.74 0.56 2.1 0 0 34.97 79.49
  L 35.53 73.00
  A 0.53 0.46 2.0 0 0 35.00 72.50
  L 13.25 72.50
  A 0.75 0.68 -77.9 0 0 12.60 72.97"
/>
<path stroke="#f5a49d" vector-effect="non-scaling-stroke" d="
  M 68.48 73.00
  L 67.31 79.26
  A 0.63 0.48 -83.3 0 0 67.75 80.00
  L 88.25 80.00
  A 0.76 0.54 1.6 0 0 88.99 79.50
  L 89.48 73.00
  A 0.48 0.47 1.7 0 0 89.00 72.50
  L 69.25 72.50
  A 0.81 0.60 3.6 0 0 68.48 73.00"
/>
<path stroke="#f5a49d" vector-effect="non-scaling-stroke" d="
  M 104.46 72.74
  L 103.21 79.49
  A 0.53 0.44 4.0 0 0 103.75 80.00
  L 121.75 80.00
  A 0.84 0.55 1.7 0 0 122.57 79.50
  L 123.20 72.99
  A 0.68 0.45 1.8 0 0 122.50 72.50
  L 104.75 72.50
  A 0.30 0.29 4.6 0 0 104.46 72.74"
/>
<path stroke="#f5a49d" vector-effect="non-scaling-stroke" d="
  M 162.69 79.68
  L 163.28 73.00
  A 0.53 0.46 2.0 0 0 162.75 72.50
  L 136.75 72.50
  A 0.46 0.35 -8.8 0 0 136.27 72.99
  L 139.19 79.56
  A 0.94 0.73 -9.3 0 0 140.00 80.00
  L 162.00 80.00
  A 0.71 0.35 1.0 0 0 162.69 79.68"
/>
<path stroke="#f5a49d" vector-effect="non-scaling-stroke" d="
  M 176.11 79.93
  C 193.16 81.12 212.82 83.65 227.16 73.15
  Q 228.05 72.50 227.00 72.50
  L 177.50 72.50
  A 0.65 0.51 4.1 0 0 176.88 72.92
  L 175.61 79.32
  A 0.54 0.51 7.2 0 0 176.11 79.93"
/>
<path stroke="#f5a49d" vector-effect="non-scaling-stroke" d="
  M 259.10 79.82
  L 260.96 72.99
  A 0.46 0.39 6.3 0 0 260.50 72.50
  L 242.00 72.50
  A 0.88 0.83 11.3 0 0 241.21 72.99
  L 238.37 79.34
  A 0.61 0.47 8.9 0 0 239.00 80.00
  L 258.75 80.00
  A 0.38 0.22 3.2 0 0 259.10 79.82"
/>
<path stroke="#f5a49d" vector-effect="non-scaling-stroke" d="
  M 300.22 79.25
  L 299.13 72.93
  A 0.66 0.51 -3.5 0 0 298.50 72.50
  L 279.00 72.50
  A 0.50 0.50 0.0 0 0 278.50 73.00
  L 278.50 79.50
  A 0.75 0.50 0.0 0 0 279.25 80.00
  L 299.50 80.00
  A 0.72 0.64 -4.4 0 0 300.22 79.25"
/>
<path stroke="#f5a49d" vector-effect="non-scaling-stroke" d="
  M 309.69 72.73
  L 308.38 79.33
  A 0.62 0.56 5.0 0 0 309.00 80.00
  L 327.25 80.00
  A 0.67 0.47 1.3 0 0 327.91 79.56
  L 328.38 73.18
  A 0.63 0.63 -87.9 0 0 327.75 72.50
  L 310.00 72.50
  A 0.32 0.28 4.2 0 0 309.69 72.73"
/>
<path stroke="#f5a49d" vector-effect="non-scaling-stroke" d="
  M 367.95 79.69
  L 368.52 73.00
  A 0.52 0.46 2.0 0 0 368.00 72.50
  L 341.75 72.50
  A 0.38 0.35 76.9 0 0 341.45 73.03
  L 344.41 79.57
  A 0.99 0.71 -8.6 0 0 345.25 80.00
  L 367.50 80.00
  A 0.46 0.34 2.0 0 0 367.95 79.69"
/>
<path stroke="#f5a49d" vector-effect="non-scaling-stroke" d="
  M 395.18 72.73
  L 393.87 79.32
  A 0.63 0.57 5.2 0 0 394.50 80.00
  L 414.75 80.00
  A 0.74 0.53 1.2 0 0 415.48 79.50
  L 415.93 72.99
  A 0.67 0.46 1.1 0 0 415.25 72.50
  L 395.50 72.50
  A 0.33 0.28 4.0 0 0 395.18 72.73"
/>
<path stroke="#f5a49d" vector-effect="non-scaling-stroke" d="
  M 199.32 63.99
  C 206.34 65.39 213.14 65.65 214.98 56.98
  Q 216.60 49.32 215.80 42.26
  C 215.02 35.34 208.51 35.59 203.09 36.46
  A 0.67 0.65 -0.7 0 0 202.54 37.01
  L 198.56 62.98
  A 0.95 0.89 10.0 0 0 199.32 63.99"
/>
<path stroke="#f5a49d" vector-effect="non-scaling-stroke" d="
  M 274.19 38.94
  L 267.65 55.21
  A 0.39 0.38 -79.1 0 0 268.00 55.74
  L 276.69 55.73
  A 0.44 0.33 86.3 0 0 277.01 55.25
  L 275.41 39.07
  Q 275.16 36.52 274.19 38.94"
/>
</g>
<path fill="#ff4736" d="
  M 0.00 0.00
  L 450.00 0.00
  L 450.00 90.00
  L 0.00 90.00
  L 0.00 0.00
  Z
  M 40.17 34.99
  L 42.01 22.25
  A 0.74 0.62 4.4 0 1 42.75 21.72
  L 68.50 22.48
  A 0.68 0.63 6.2 0 0 69.17 21.98
  L 72.57 5.78
  Q 72.99 3.74 71.01 3.74
  L 21.50 3.75
  A 0.68 0.65 2.8 0 0 20.83 4.33
  C 18.67 24.85 17.32 45.90 13.83 66.21
  A 0.46 0.43 -84.9 0 0 14.25 66.75
  L 35.50 66.75
  A 0.71 0.55 1.7 0 0 36.20 66.24
  L 37.23 54.50
  A 1.12 0.99 -86.7 0 1 38.25 53.47
  L 58.75 53.96
  A 0.62 0.48 5.0 0 0 59.35 53.57
  L 62.78 37.01
  A 1.51 1.18 -83.2 0 0 61.69 35.20
  L 40.75 35.50
  A 0.56 0.45 2.5 0 1 40.17 34.99
  Z
  M 126.69 52.06
  L 133.10 66.17
  A 1.00 0.99 77.3 0 0 134.00 66.75
  L 163.25 66.75
  A 0.60 0.35 -83.5 0 0 163.64 66.23
  L 170.51 20.25
  A 0.95 0.90 2.1 0 0 169.50 19.23
  L 151.06 20.31
  A 0.58 0.47 -88.1 0 0 150.62 20.82
  L 148.19 47.24
  A 0.90 0.65 88.8 0 1 147.66 48.00
  Q 146.90 48.19 146.56 47.42
  Q 140.36 33.80 134.07 20.07
  A 0.98 0.86 76.3 0 0 133.25 19.50
  L 111.00 19.50
  A 0.62 0.51 -86.3 0 0 110.48 20.05
  C 109.02 35.44 107.30 50.78 105.71 66.16
  A 0.54 0.54 2.9 0 0 106.25 66.75
  L 123.25 66.75
  A 0.67 0.40 -85.9 0 0 123.68 66.14
  C 123.98 62.84 125.05 51.50 125.95 51.46
  A 0.98 0.65 72.4 0 1 126.69 52.06
  Z
  M 233.12 66.25
  C 243.82 47.71 241.82 19.33 213.73 19.27
  Q 198.62 19.25 183.49 19.59
  A 0.55 0.45 1.6 0 0 182.96 20.00
  L 178.28 66.20
  A 0.50 0.48 -86.8 0 0 178.75 66.75
  L 232.25 66.75
  A 1.01 0.98 14.2 0 0 233.12 66.25
  Z
  M 330.62 52.17
  Q 330.89 49.77 331.95 52.07
  L 338.46 66.27
  A 0.79 0.58 74.5 0 0 339.06 66.74
  L 368.50 66.75
  A 0.51 0.42 -86.3 0 0 368.93 66.30
  Q 371.90 42.99 375.85 19.82
  A 0.53 0.38 -84.4 0 0 375.49 19.19
  L 356.50 20.32
  A 0.69 0.46 -86.1 0 0 356.04 20.92
  Q 354.59 33.90 353.52 46.93
  C 353.42 48.17 352.37 48.70 351.79 47.43
  Q 345.59 33.81 339.32 20.07
  A 0.98 0.86 76.3 0 0 338.50 19.50
  L 316.25 19.50
  A 0.56 0.54 -87.1 0 0 315.71 20.00
  L 311.10 66.26
  A 0.45 0.41 -86.8 0 0 311.50 66.75
  L 328.50 66.75
  A 0.57 0.50 -86.1 0 0 329.00 66.25
  L 330.62 52.17
  Z
  M 74.59 19.68
  L 69.86 65.96
  A 0.72 0.44 -85.3 0 0 70.26 66.75
  L 89.25 66.75
  A 0.62 0.51 -84.9 0 0 89.77 66.22
  L 96.77 20.25
  A 0.66 0.55 -85.1 0 0 96.25 19.50
  L 74.81 19.51
  A 0.22 0.19 2.8 0 0 74.59 19.68
  Z
  M 264.43 19.93
  Q 254.29 43.20 244.09 66.43
  A 0.24 0.23 11.4 0 0 244.31 66.75
  L 297.50 66.75
  A 0.65 0.55 84.7 0 0 298.02 66.00
  L 290.58 19.94
  A 0.51 0.30 83.2 0 0 290.25 19.50
  L 264.75 19.50
  A 0.30 0.23 -80.6 0 0 264.51 19.72
  Q 264.47 19.85 264.43 19.93
  Z
  M 410.31 40.98
  A 0.44 0.43 -17.1 0 1 409.77 40.70
  Q 406.55 30.50 404.40 20.02
  A 0.67 0.64 -5.2 0 0 403.75 19.50
  L 382.25 19.50
  A 0.42 0.40 79.4 0 0 381.88 20.07
  Q 389.23 40.39 396.51 60.74
  C 397.22 62.70 396.75 64.20 396.48 66.18
  A 0.52 0.50 3.8 0 0 397.00 66.75
  L 415.75 66.75
  A 0.60 0.53 -86.4 0 0 416.28 66.22
  C 416.56 64.08 416.68 62.62 417.93 60.73
  Q 431.32 40.48 444.76 20.15
  Q 445.19 19.50 444.50 19.50
  L 423.75 19.50
  A 1.08 0.86 -72.3 0 0 422.92 20.06
  C 421.45 22.80 412.06 40.46 410.31 40.98
  Z
  M 12.60 72.97
  C 12.07 74.24 11.75 77.77 11.55 79.40
  A 0.54 0.46 -86.2 0 0 12.00 80.00
  L 34.25 80.00
  A 0.74 0.56 2.1 0 0 34.97 79.49
  L 35.53 73.00
  A 0.53 0.46 2.0 0 0 35.00 72.50
  L 13.25 72.50
  A 0.75 0.68 -77.9 0 0 12.60 72.97
  Z
  M 68.48 73.00
  L 67.31 79.26
  A 0.63 0.48 -83.3 0 0 67.75 80.00
  L 88.25 80.00
  A 0.76 0.54 1.6 0 0 88.99 79.50
  L 89.48 73.00
  A 0.48 0.47 1.7 0 0 89.00 72.50
  L 69.25 72.50
  A 0.81 0.60 3.6 0 0 68.48 73.00
  Z
  M 104.46 72.74
  L 103.21 79.49
  A 0.53 0.44 4.0 0 0 103.75 80.00
  L 121.75 80.00
  A 0.84 0.55 1.7 0 0 122.57 79.50
  L 123.20 72.99
  A 0.68 0.45 1.8 0 0 122.50 72.50
  L 104.75 72.50
  A 0.30 0.29 4.6 0 0 104.46 72.74
  Z
  M 162.69 79.68
  L 163.28 73.00
  A 0.53 0.46 2.0 0 0 162.75 72.50
  L 136.75 72.50
  A 0.46 0.35 -8.8 0 0 136.27 72.99
  L 139.19 79.56
  A 0.94 0.73 -9.3 0 0 140.00 80.00
  L 162.00 80.00
  A 0.71 0.35 1.0 0 0 162.69 79.68
  Z
  M 176.11 79.93
  C 193.16 81.12 212.82 83.65 227.16 73.15
  Q 228.05 72.50 227.00 72.50
  L 177.50 72.50
  A 0.65 0.51 4.1 0 0 176.88 72.92
  L 175.61 79.32
  A 0.54 0.51 7.2 0 0 176.11 79.93
  Z
  M 259.10 79.82
  L 260.96 72.99
  A 0.46 0.39 6.3 0 0 260.50 72.50
  L 242.00 72.50
  A 0.88 0.83 11.3 0 0 241.21 72.99
  L 238.37 79.34
  A 0.61 0.47 8.9 0 0 239.00 80.00
  L 258.75 80.00
  A 0.38 0.22 3.2 0 0 259.10 79.82
  Z
  M 300.22 79.25
  L 299.13 72.93
  A 0.66 0.51 -3.5 0 0 298.50 72.50
  L 279.00 72.50
  A 0.50 0.50 0.0 0 0 278.50 73.00
  L 278.50 79.50
  A 0.75 0.50 0.0 0 0 279.25 80.00
  L 299.50 80.00
  A 0.72 0.64 -4.4 0 0 300.22 79.25
  Z
  M 309.69 72.73
  L 308.38 79.33
  A 0.62 0.56 5.0 0 0 309.00 80.00
  L 327.25 80.00
  A 0.67 0.47 1.3 0 0 327.91 79.56
  L 328.38 73.18
  A 0.63 0.63 -87.9 0 0 327.75 72.50
  L 310.00 72.50
  A 0.32 0.28 4.2 0 0 309.69 72.73
  Z
  M 367.95 79.69
  L 368.52 73.00
  A 0.52 0.46 2.0 0 0 368.00 72.50
  L 341.75 72.50
  A 0.38 0.35 76.9 0 0 341.45 73.03
  L 344.41 79.57
  A 0.99 0.71 -8.6 0 0 345.25 80.00
  L 367.50 80.00
  A 0.46 0.34 2.0 0 0 367.95 79.69
  Z
  M 395.18 72.73
  L 393.87 79.32
  A 0.63 0.57 5.2 0 0 394.50 80.00
  L 414.75 80.00
  A 0.74 0.53 1.2 0 0 415.48 79.50
  L 415.93 72.99
  A 0.67 0.46 1.1 0 0 415.25 72.50
  L 395.50 72.50
  A 0.33 0.28 4.0 0 0 395.18 72.73
  Z"
/>
<path fill="#ffffff" d="
  M 40.75 35.50
  L 61.69 35.20
  A 1.51 1.18 -83.2 0 1 62.78 37.01
  L 59.35 53.57
  A 0.62 0.48 5.0 0 1 58.75 53.96
  L 38.25 53.47
  A 1.12 0.99 -86.7 0 0 37.23 54.50
  L 36.20 66.24
  A 0.71 0.55 1.7 0 1 35.50 66.75
  L 14.25 66.75
  A 0.46 0.43 -84.9 0 1 13.83 66.21
  C 17.32 45.90 18.67 24.85 20.83 4.33
  A 0.68 0.65 2.8 0 1 21.50 3.75
  L 71.01 3.74
  Q 72.99 3.74 72.57 5.78
  L 69.17 21.98
  A 0.68 0.63 6.2 0 1 68.50 22.48
  L 42.75 21.72
  A 0.74 0.62 4.4 0 0 42.01 22.25
  L 40.17 34.99
  A 0.56 0.45 2.5 0 0 40.75 35.50
  Z"
/>
<path fill="#ffffff" d="
  M 125.95 51.46
  C 125.05 51.50 123.98 62.84 123.68 66.14
  A 0.67 0.40 -85.9 0 1 123.25 66.75
  L 106.25 66.75
  A 0.54 0.54 2.9 0 1 105.71 66.16
  C 107.30 50.78 109.02 35.44 110.48 20.05
  A 0.62 0.51 -86.3 0 1 111.00 19.50
  L 133.25 19.50
  A 0.98 0.86 76.3 0 1 134.07 20.07
  Q 140.36 33.80 146.56 47.42
  Q 146.90 48.19 147.66 48.00
  A 0.90 0.65 88.8 0 0 148.19 47.24
  L 150.62 20.82
  A 0.58 0.47 -88.1 0 1 151.06 20.31
  L 169.50 19.23
  A 0.95 0.90 2.1 0 1 170.51 20.25
  L 163.64 66.23
  A 0.60 0.35 -83.5 0 1 163.25 66.75
  L 134.00 66.75
  A 1.00 0.99 77.3 0 1 133.10 66.17
  L 126.69 52.06
  A 0.98 0.65 72.4 0 0 125.95 51.46
  Z"
/>
<path fill="#ffffff" d="
  M 213.73 19.27
  C 241.82 19.33 243.82 47.71 233.12 66.25
  A 1.01 0.98 14.2 0 1 232.25 66.75
  L 178.75 66.75
  A 0.50 0.48 -86.8 0 1 178.28 66.20
  L 182.96 20.00
  A 0.55 0.45 1.6 0 1 183.49 19.59
  Q 198.62 19.25 213.73 19.27
  Z
  M 199.32 63.99
  C 206.34 65.39 213.14 65.65 214.98 56.98
  Q 216.60 49.32 215.80 42.26
  C 215.02 35.34 208.51 35.59 203.09 36.46
  A 0.67 0.65 -0.7 0 0 202.54 37.01
  L 198.56 62.98
  A 0.95 0.89 10.0 0 0 199.32 63.99
  Z"
/>
<path fill="#ffffff" d="
  M 330.62 52.17
  L 329.00 66.25
  A 0.57 0.50 -86.1 0 1 328.50 66.75
  L 311.50 66.75
  A 0.45 0.41 -86.8 0 1 311.10 66.26
  L 315.71 20.00
  A 0.56 0.54 -87.1 0 1 316.25 19.50
  L 338.50 19.50
  A 0.98 0.86 76.3 0 1 339.32 20.07
  Q 345.59 33.81 351.79 47.43
  C 352.37 48.70 353.42 48.17 353.52 46.93
  Q 354.59 33.90 356.04 20.92
  A 0.69 0.46 -86.1 0 1 356.50 20.32
  L 375.49 19.19
  A 0.53 0.38 -84.4 0 1 375.85 19.82
  Q 371.90 42.99 368.93 66.30
  A 0.51 0.42 -86.3 0 1 368.50 66.75
  L 339.06 66.74
  A 0.79 0.58 74.5 0 1 338.46 66.27
  L 331.95 52.07
  Q 330.89 49.77 330.62 52.17
  Z"
/>
<path fill="#ffffff" d="
  M 74.59 19.68
  A 0.22 0.19 2.8 0 1 74.81 19.51
  L 96.25 19.50
  A 0.66 0.55 -85.1 0 1 96.77 20.25
  L 89.77 66.22
  A 0.62 0.51 -84.9 0 1 89.25 66.75
  L 70.26 66.75
  A 0.72 0.44 -85.3 0 1 69.86 65.96
  L 74.59 19.68
  Z"
/>
<path fill="#ffffff" d="
  M 264.43 19.93
  Q 264.47 19.85 264.51 19.72
  A 0.30 0.23 -80.6 0 1 264.75 19.50
  L 290.25 19.50
  A 0.51 0.30 83.2 0 1 290.58 19.94
  L 298.02 66.00
  A 0.65 0.55 84.7 0 1 297.50 66.75
  L 244.31 66.75
  A 0.24 0.23 11.4 0 1 244.09 66.43
  Q 254.29 43.20 264.43 19.93
  Z
  M 274.19 38.94
  L 267.65 55.21
  A 0.39 0.38 -79.1 0 0 268.00 55.74
  L 276.69 55.73
  A 0.44 0.33 86.3 0 0 277.01 55.25
  L 275.41 39.07
  Q 275.16 36.52 274.19 38.94
  Z"
/>
<path fill="#ffffff" d="
  M 410.31 40.98
  C 412.06 40.46 421.45 22.80 422.92 20.06
  A 1.08 0.86 -72.3 0 1 423.75 19.50
  L 444.50 19.50
  Q 445.19 19.50 444.76 20.15
  Q 431.32 40.48 417.93 60.73
  C 416.68 62.62 416.56 64.08 416.28 66.22
  A 0.60 0.53 -86.4 0 1 415.75 66.75
  L 397.00 66.75
  A 0.52 0.50 3.8 0 1 396.48 66.18
  C 396.75 64.20 397.22 62.70 396.51 60.74
  Q 389.23 40.39 381.88 20.07
  A 0.42 0.40 79.4 0 1 382.25 19.50
  L 403.75 19.50
  A 0.67 0.64 -5.2 0 1 404.40 20.02
  Q 406.55 30.50 409.77 40.70
  A 0.44 0.43 -17.1 0 0 410.31 40.98
  Z"
/>
<path fill="#ff4736" d="
  M 199.32 63.99
  A 0.95 0.89 10.0 0 1 198.56 62.98
  L 202.54 37.01
  A 0.67 0.65 -0.7 0 1 203.09 36.46
  C 208.51 35.59 215.02 35.34 215.80 42.26
  Q 216.60 49.32 214.98 56.98
  C 213.14 65.65 206.34 65.39 199.32 63.99
  Z"
/>
<path fill="#ff4736" d="
  M 274.19 38.94
  Q 275.16 36.52 275.41 39.07
  L 277.01 55.25
  A 0.44 0.33 86.3 0 1 276.69 55.73
  L 268.00 55.74
  A 0.39 0.38 -79.1 0 1 267.65 55.21
  L 274.19 38.94
  Z"
/>
<path fill="#ffffff" d="
  M 11.55 79.40
  C 11.75 77.77 12.07 74.24 12.60 72.97
  A 0.75 0.68 -77.9 0 1 13.25 72.50
  L 35.00 72.50
  A 0.53 0.46 2.0 0 1 35.53 73.00
  L 34.97 79.49
  A 0.74 0.56 2.1 0 1 34.25 80.00
  L 12.00 80.00
  A 0.54 0.46 -86.2 0 1 11.55 79.40
  Z"
/>
<path fill="#ffffff" d="
  M 68.48 73.00
  A 0.81 0.60 3.6 0 1 69.25 72.50
  L 89.00 72.50
  A 0.48 0.47 1.7 0 1 89.48 73.00
  L 88.99 79.50
  A 0.76 0.54 1.6 0 1 88.25 80.00
  L 67.75 80.00
  A 0.63 0.48 -83.3 0 1 67.31 79.26
  L 68.48 73.00
  Z"
/>
<path fill="#ffffff" d="
  M 104.46 72.74
  A 0.30 0.29 4.6 0 1 104.75 72.50
  L 122.50 72.50
  A 0.68 0.45 1.8 0 1 123.20 72.99
  L 122.57 79.50
  A 0.84 0.55 1.7 0 1 121.75 80.00
  L 103.75 80.00
  A 0.53 0.44 4.0 0 1 103.21 79.49
  L 104.46 72.74
  Z"
/>
<path fill="#ffffff" d="
  M 162.69 79.68
  A 0.71 0.35 1.0 0 1 162.00 80.00
  L 140.00 80.00
  A 0.94 0.73 -9.3 0 1 139.19 79.56
  L 136.27 72.99
  A 0.46 0.35 -8.8 0 1 136.75 72.50
  L 162.75 72.50
  A 0.53 0.46 2.0 0 1 163.28 73.00
  L 162.69 79.68
  Z"
/>
<path fill="#ffffff" d="
  M 176.11 79.93
  A 0.54 0.51 7.2 0 1 175.61 79.32
  L 176.88 72.92
  A 0.65 0.51 4.1 0 1 177.50 72.50
  L 227.00 72.50
  Q 228.05 72.50 227.16 73.15
  C 212.82 83.65 193.16 81.12 176.11 79.93
  Z"
/>
<path fill="#ffffff" d="
  M 259.10 79.82
  A 0.38 0.22 3.2 0 1 258.75 80.00
  L 239.00 80.00
  A 0.61 0.47 8.9 0 1 238.37 79.34
  L 241.21 72.99
  A 0.88 0.83 11.3 0 1 242.00 72.50
  L 260.50 72.50
  A 0.46 0.39 6.3 0 1 260.96 72.99
  L 259.10 79.82
  Z"
/>
<path fill="#ffffff" d="
  M 300.22 79.25
  A 0.72 0.64 -4.4 0 1 299.50 80.00
  L 279.25 80.00
  A 0.75 0.50 0.0 0 1 278.50 79.50
  L 278.50 73.00
  A 0.50 0.50 0.0 0 1 279.00 72.50
  L 298.50 72.50
  A 0.66 0.51 -3.5 0 1 299.13 72.93
  L 300.22 79.25
  Z"
/>
<path fill="#ffffff" d="
  M 309.69 72.73
  A 0.32 0.28 4.2 0 1 310.00 72.50
  L 327.75 72.50
  A 0.63 0.63 -87.9 0 1 328.38 73.18
  L 327.91 79.56
  A 0.67 0.47 1.3 0 1 327.25 80.00
  L 309.00 80.00
  A 0.62 0.56 5.0 0 1 308.38 79.33
  L 309.69 72.73
  Z"
/>
<path fill="#ffffff" d="
  M 367.95 79.69
  A 0.46 0.34 2.0 0 1 367.50 80.00
  L 345.25 80.00
  A 0.99 0.71 -8.6 0 1 344.41 79.57
  L 341.45 73.03
  A 0.38 0.35 76.9 0 1 341.75 72.50
  L 368.00 72.50
  A 0.52 0.46 2.0 0 1 368.52 73.00
  L 367.95 79.69
  Z"
/>
<path fill="#ffffff" d="
  M 395.18 72.73
  A 0.33 0.28 4.0 0 1 395.50 72.50
  L 415.25 72.50
  A 0.67 0.46 1.1 0 1 415.93 72.99
  L 415.48 79.50
  A 0.74 0.53 1.2 0 1 414.75 80.00
  L 394.50 80.00
  A 0.63 0.57 5.2 0 1 393.87 79.32
  L 395.18 72.73
  Z"
/>
</svg>
